<svg width="18" height="18" viewBox="0 0 18 18" fill="none" xmlns="http://www.w3.org/2000/svg">
<path d="M10.8179 8.99996L17.623 2.19488C18.1257 1.69347 18.1257 0.878433 17.623 0.377022C17.1203 -0.125674 16.3077 -0.125674 15.805 0.377022L9 7.18202L2.19496 0.377022C1.69226 -0.125674 0.879718 -0.125674 0.377022 0.377022C-0.125674 0.878433 -0.125674 1.69347 0.377022 2.19488L7.18206 8.99996L0.377022 15.805C-0.125674 16.3064 -0.125674 17.1215 0.377022 17.6229C0.627728 17.8736 0.956859 17.9996 1.28599 17.9996C1.61512 17.9996 1.94425 17.8736 2.19496 17.6229L9 10.8179L15.805 17.6229C16.0557 17.8736 16.3849 17.9996 16.714 17.9996C17.0431 17.9996 17.3723 17.8736 17.623 17.6229C18.1257 17.1215 18.1257 16.3064 17.623 15.805L10.8179 8.99996Z" fill="#47474F"/>
</svg>
